<svg width="105" height="105" viewBox="0 0 105 105" fill="none" xmlns="http://www.w3.org/2000/svg">
<g filter="url(#filter0_d_3495_663)">
<circle cx="52.5" cy="45.5" r="27.5" fill="url(#paint0_linear_3495_663)"/>
</g>
<g filter="url(#filter1_d_3495_663)">
<path d="M52.6875 27C44.5625 27 37.625 32.25 35.0625 39.5H70.4375C67.8125 32.25 60.875 27 52.6875 27Z" fill="#F2B200"/>
<path d="M52.6875 64.5C60.875 64.5 67.8125 59.3125 70.375 52H35.0625C37.625 59.3125 44.5625 64.5 52.6875 64.5Z" fill="#83BF4F"/>
<path d="M35.0625 39.5C34.375 41.4375 34 43.5625 34 45.75C34 47.9375 34.375 50.0625 35.0625 52H70.4375C71.125 50.0625 71.5 47.9375 71.5 45.75C71.5 43.5625 71.125 41.4375 70.4375 39.5H35.0625Z" fill="white"/>
<path d="M52.6875 50.75C55.4489 50.75 57.6875 48.5114 57.6875 45.75C57.6875 42.9886 55.4489 40.75 52.6875 40.75C49.9261 40.75 47.6875 42.9886 47.6875 45.75C47.6875 48.5114 49.9261 50.75 52.6875 50.75Z" fill="#428BC1"/>
<path d="M52.6875 50.125C55.1037 50.125 57.0625 48.1662 57.0625 45.75C57.0625 43.3338 55.1037 41.375 52.6875 41.375C50.2713 41.375 48.3125 43.3338 48.3125 45.75C48.3125 48.1662 50.2713 50.125 52.6875 50.125Z" fill="white"/>
<path d="M51.0625 42C51.2351 42 51.375 41.8601 51.375 41.6875C51.375 41.5149 51.2351 41.375 51.0625 41.375C50.8899 41.375 50.75 41.5149 50.75 41.6875C50.75 41.8601 50.8899 42 51.0625 42Z" fill="#428BC1"/>
<path d="M50.0625 42.5625C50.2351 42.5625 50.375 42.4226 50.375 42.25C50.375 42.0774 50.2351 41.9375 50.0625 41.9375C49.8899 41.9375 49.75 42.0774 49.75 42.25C49.75 42.4226 49.8899 42.5625 50.0625 42.5625Z" fill="#428BC1"/>
<path d="M49.25 43.375C49.4226 43.375 49.5625 43.2351 49.5625 43.0625C49.5625 42.8899 49.4226 42.75 49.25 42.75C49.0774 42.75 48.9375 42.8899 48.9375 43.0625C48.9375 43.2351 49.0774 43.375 49.25 43.375Z" fill="#428BC1"/>
<path d="M48.6875 44.375C48.8601 44.375 49 44.2351 49 44.0625C49 43.8899 48.8601 43.75 48.6875 43.75C48.5149 43.75 48.375 43.8899 48.375 44.0625C48.375 44.2351 48.5149 44.375 48.6875 44.375Z" fill="#428BC1"/>
<path d="M48.375 45.5C48.5476 45.5 48.6875 45.3601 48.6875 45.1875C48.6875 45.0149 48.5476 44.875 48.375 44.875C48.2024 44.875 48.0625 45.0149 48.0625 45.1875C48.0625 45.3601 48.2024 45.5 48.375 45.5Z" fill="#428BC1"/>
<path d="M48.375 46.625C48.5476 46.625 48.6875 46.4851 48.6875 46.3125C48.6875 46.1399 48.5476 46 48.375 46C48.2024 46 48.0625 46.1399 48.0625 46.3125C48.0625 46.4851 48.2024 46.625 48.375 46.625Z" fill="#428BC1"/>
<path d="M48.6875 47.75C48.8601 47.75 49 47.6101 49 47.4375C49 47.2649 48.8601 47.125 48.6875 47.125C48.5149 47.125 48.375 47.2649 48.375 47.4375C48.375 47.6101 48.5149 47.75 48.6875 47.75Z" fill="#428BC1"/>
<path d="M49.25 48.75C49.4226 48.75 49.5625 48.6101 49.5625 48.4375C49.5625 48.2649 49.4226 48.125 49.25 48.125C49.0774 48.125 48.9375 48.2649 48.9375 48.4375C48.9375 48.6101 49.0774 48.75 49.25 48.75Z" fill="#428BC1"/>
<path d="M50.0625 49.5625C50.2351 49.5625 50.375 49.4226 50.375 49.25C50.375 49.0774 50.2351 48.9375 50.0625 48.9375C49.8899 48.9375 49.75 49.0774 49.75 49.25C49.75 49.4226 49.8899 49.5625 50.0625 49.5625Z" fill="#428BC1"/>
<path d="M51.0625 50.125C51.2351 50.125 51.375 49.9851 51.375 49.8125C51.375 49.6399 51.2351 49.5 51.0625 49.5C50.8899 49.5 50.75 49.6399 50.75 49.8125C50.75 49.9851 50.8899 50.125 51.0625 50.125Z" fill="#428BC1"/>
<path d="M52.125 50.375C52.2976 50.375 52.4375 50.2351 52.4375 50.0625C52.4375 49.8899 52.2976 49.75 52.125 49.75C51.9524 49.75 51.8125 49.8899 51.8125 50.0625C51.8125 50.2351 51.9524 50.375 52.125 50.375Z" fill="#428BC1"/>
<path d="M53 50.125C53 49.9375 53.125 49.8125 53.25 49.75C53.4375 49.75 53.5625 49.875 53.625 50C53.625 50.1875 53.5 50.3125 53.375 50.375C53.125 50.4375 53 50.3125 53 50.125Z" fill="#428BC1"/>
<path d="M54.375 50.125C54.5476 50.125 54.6875 49.9851 54.6875 49.8125C54.6875 49.6399 54.5476 49.5 54.375 49.5C54.2024 49.5 54.0625 49.6399 54.0625 49.8125C54.0625 49.9851 54.2024 50.125 54.375 50.125Z" fill="#428BC1"/>
<path d="M55.375 49.5625C55.5476 49.5625 55.6875 49.4226 55.6875 49.25C55.6875 49.0774 55.5476 48.9375 55.375 48.9375C55.2024 48.9375 55.0625 49.0774 55.0625 49.25C55.0625 49.4226 55.2024 49.5625 55.375 49.5625Z" fill="#428BC1"/>
<path d="M56.1875 48.75C56.3601 48.75 56.5 48.6101 56.5 48.4375C56.5 48.2649 56.3601 48.125 56.1875 48.125C56.0149 48.125 55.875 48.2649 55.875 48.4375C55.875 48.6101 56.0149 48.75 56.1875 48.75Z" fill="#428BC1"/>
<path d="M56.75 47.75C56.9226 47.75 57.0625 47.6101 57.0625 47.4375C57.0625 47.2649 56.9226 47.125 56.75 47.125C56.5774 47.125 56.4375 47.2649 56.4375 47.4375C56.4375 47.6101 56.5774 47.75 56.75 47.75Z" fill="#428BC1"/>
<path d="M57.0625 46.625C57.2351 46.625 57.375 46.4851 57.375 46.3125C57.375 46.1399 57.2351 46 57.0625 46C56.8899 46 56.75 46.1399 56.75 46.3125C56.75 46.4851 56.8899 46.625 57.0625 46.625Z" fill="#428BC1"/>
<path d="M57.0625 45.5C56.875 45.5 56.75 45.375 56.6875 45.25C56.6875 45.0625 56.8125 44.9375 56.9375 44.875C57.125 44.875 57.25 45 57.3125 45.125C57.375 45.3125 57.25 45.4375 57.0625 45.5Z" fill="#428BC1"/>
<path d="M56.75 44.375C56.9226 44.375 57.0625 44.2351 57.0625 44.0625C57.0625 43.8899 56.9226 43.75 56.75 43.75C56.5774 43.75 56.4375 43.8899 56.4375 44.0625C56.4375 44.2351 56.5774 44.375 56.75 44.375Z" fill="#428BC1"/>
<path d="M56.1875 43.375C56.3601 43.375 56.5 43.2351 56.5 43.0625C56.5 42.8899 56.3601 42.75 56.1875 42.75C56.0149 42.75 55.875 42.8899 55.875 43.0625C55.875 43.2351 56.0149 43.375 56.1875 43.375Z" fill="#428BC1"/>
<path d="M55.375 42.5625C55.5476 42.5625 55.6875 42.4226 55.6875 42.25C55.6875 42.0774 55.5476 41.9375 55.375 41.9375C55.2024 41.9375 55.0625 42.0774 55.0625 42.25C55.0625 42.4226 55.2024 42.5625 55.375 42.5625Z" fill="#428BC1"/>
<path d="M54.6875 41.8126C54.625 42.0001 54.4375 42.0626 54.25 42.0001C54.0625 41.9376 54 41.7501 54.0625 41.5626C54.125 41.3751 54.3125 41.3126 54.5 41.3751C54.6875 41.5001 54.75 41.6876 54.6875 41.8126ZM53.5625 41.4376C53.5625 41.6251 53.375 41.7501 53.1875 41.6876C53 41.6876 52.875 41.5001 52.9375 41.3126C52.9375 41.1251 53.125 41.0001 53.3125 41.0626C53.5 41.1251 53.625 41.3126 53.5625 41.4376ZM52.4375 41.3751C52.4375 41.5626 52.3125 41.6876 52.1875 41.7501C52 41.7501 51.875 41.6251 51.8125 41.5001C51.8125 41.3126 51.9375 41.1876 52.0625 41.1251C52.25 41.0626 52.4375 41.1876 52.4375 41.3751Z" fill="#428BC1"/>
<path d="M52.6875 46.6875C53.2053 46.6875 53.625 46.2678 53.625 45.75C53.625 45.2322 53.2053 44.8125 52.6875 44.8125C52.1697 44.8125 51.75 45.2322 51.75 45.75C51.75 46.2678 52.1697 46.6875 52.6875 46.6875Z" fill="#428BC1"/>
<path d="M52.6875 41.375L52.5625 44.0625L52.6875 45.75L52.875 44.0625L52.6875 41.375ZM51.5625 41.5L52.125 44.1875L52.6875 45.75L52.4375 44.0625L51.5625 41.5Z" fill="#428BC1"/>
<path d="M50.5 41.9375L51.75 44.375L52.6875 45.75L52 44.1875L50.5 41.9375ZM49.625 42.625L51.4375 44.6875L52.6875 45.75L51.625 44.4375L49.625 42.625Z" fill="#428BC1"/>
<path d="M48.9375 43.5625L51.1875 45.0625L52.6875 45.75L51.3125 44.75L48.9375 43.5625Z" fill="#428BC1"/>
<path d="M48.5 44.625L51.0625 45.4375L52.6875 45.75L51.125 45.1875L48.5 44.625ZM48.3125 45.75L51.0625 45.875L52.6875 45.75L51.0625 45.625L48.3125 45.75Z" fill="#428BC1"/>
<path d="M48.5 46.875L51.125 46.3125L52.6875 45.75L51.0625 46.0625L48.5 46.875ZM48.9375 47.9375L51.3125 46.75L52.6875 45.75L51.1875 46.4375L48.9375 47.9375Z" fill="#428BC1"/>
<path d="M49.625 48.8125L51.625 47.0625L52.6875 45.75L51.4375 46.8125L49.625 48.8125ZM50.5 49.5625L52 47.25L52.6875 45.75L51.75 47.125L50.5 49.5625Z" fill="#428BC1"/>
<path d="M51.5625 50L52.4375 47.4375L52.6875 45.75L52.125 47.3125L51.5625 50ZM52.6875 50.125L52.875 47.4375L52.6875 45.75L52.5625 47.4375L52.6875 50.125ZM53.8125 50L53.3125 47.3125L52.6875 45.75L53 47.4375L53.8125 50Z" fill="#428BC1"/>
<path d="M54.875 49.5625L53.6875 47.125L52.6875 45.75L53.4375 47.3125L54.875 49.5625ZM55.8125 48.8125L54 46.8125L52.6875 45.75L53.8125 47.0625L55.8125 48.8125Z" fill="#428BC1"/>
<path d="M56.5 47.9375L54.25 46.4375L52.6875 45.75L54.0625 46.75L56.5 47.9375ZM56.9375 46.875L54.375 46.0625L52.6875 45.75L54.3125 46.3125L56.9375 46.875ZM57.0625 45.75L54.375 45.5625L52.6875 45.75L54.375 45.875L57.0625 45.75ZM56.9375 44.625L54.3125 45.1875L52.6875 45.75L54.375 45.4375L56.9375 44.625Z" fill="#428BC1"/>
<path d="M56.5 43.5625L54.0625 44.75L52.6875 45.75L54.25 45.0625L56.5 43.5625ZM55.8125 42.6875L53.8125 44.4375L52.6875 45.75L54 44.6875L55.8125 42.6875Z" fill="#428BC1"/>
<path d="M54.875 41.9375L53.4375 44.25L52.6875 45.75L53.6875 44.375L54.875 41.9375Z" fill="#428BC1"/>
<path d="M53.875 41.5L53 44.0625L52.6875 45.75L53.3125 44.1875L53.875 41.5Z" fill="#428BC1"/>
</g>
<defs>
<filter id="filter0_d_3495_663" x="0" y="0" width="105" height="105" filterUnits="userSpaceOnUse" color-interpolation-filters="sRGB">
<feFlood flood-opacity="0" result="BackgroundImageFix"/>
<feColorMatrix in="SourceAlpha" type="matrix" values="0 0 0 0 0 0 0 0 0 0 0 0 0 0 0 0 0 0 127 0" result="hardAlpha"/>
<feMorphology radius="1" operator="dilate" in="SourceAlpha" result="effect1_dropShadow_3495_663"/>
<feOffset dy="7"/>
<feGaussianBlur stdDeviation="12"/>
<feComposite in2="hardAlpha" operator="out"/>
<feColorMatrix type="matrix" values="0 0 0 0 0.466667 0 0 0 0 0.701961 0 0 0 0 0.988235 0 0 0 0.5 0"/>
<feBlend mode="normal" in2="BackgroundImageFix" result="effect1_dropShadow_3495_663"/>
<feBlend mode="normal" in="SourceGraphic" in2="effect1_dropShadow_3495_663" result="shape"/>
</filter>
<filter id="filter1_d_3495_663" x="27" y="20" width="51.5" height="51.5" filterUnits="userSpaceOnUse" color-interpolation-filters="sRGB">
<feFlood flood-opacity="0" result="BackgroundImageFix"/>
<feColorMatrix in="SourceAlpha" type="matrix" values="0 0 0 0 0 0 0 0 0 0 0 0 0 0 0 0 0 0 127 0" result="hardAlpha"/>
<feOffset/>
<feGaussianBlur stdDeviation="3.5"/>
<feComposite in2="hardAlpha" operator="out"/>
<feColorMatrix type="matrix" values="0 0 0 0 0 0 0 0 0 0 0 0 0 0 0 0 0 0 0.3 0"/>
<feBlend mode="normal" in2="BackgroundImageFix" result="effect1_dropShadow_3495_663"/>
<feBlend mode="normal" in="SourceGraphic" in2="effect1_dropShadow_3495_663" result="shape"/>
</filter>
<linearGradient id="paint0_linear_3495_663" x1="64.2058" y1="72.4863" x2="39.7595" y2="21.8619" gradientUnits="userSpaceOnUse">
<stop stop-color="#5C77FD"/>
<stop offset="1" stop-color="#81C8FC"/>
</linearGradient>
</defs>
</svg>
